<svg width="25" height="25" viewBox="0 0 25 25" fill="none" xmlns="http://www.w3.org/2000/svg">
<path d="M11.3636 2.27273V9.09091C11.3636 9.69367 11.1242 10.2718 10.698 10.698C10.2718 11.1242 9.69367 11.3636 9.09091 11.3636H2.27273C1.66996 11.3636 1.09189 11.1242 0.665666 10.698C0.239447 10.2718 0 9.69367 0 9.09091V2.27273C0 1.66996 0.239447 1.09189 0.665666 0.665666C1.09189 0.239447 1.66996 0 2.27273 0H9.09091C9.69367 0 10.2718 0.239447 10.698 0.665666C11.1242 1.09189 11.3636 1.66996 11.3636 2.27273ZM22.7273 0H15.9091C15.3063 0 14.7282 0.239447 14.302 0.665666C13.8758 1.09189 13.6364 1.66996 13.6364 2.27273V9.09091C13.6364 9.69367 13.8758 10.2718 14.302 10.698C14.7282 11.1242 15.3063 11.3636 15.9091 11.3636H22.7273C23.33 11.3636 23.9081 11.1242 24.3343 10.698C24.7606 10.2718 25 9.69367 25 9.09091V2.27273C25 1.66996 24.7606 1.09189 24.3343 0.665666C23.9081 0.239447 23.33 0 22.7273 0ZM9.09091 13.6364H2.27273C1.66996 13.6364 1.09189 13.8758 0.665666 14.302C0.239447 14.7282 0 15.3063 0 15.9091V22.7273C0 23.33 0.239447 23.9081 0.665666 24.3343C1.09189 24.7606 1.66996 25 2.27273 25H9.09091C9.69367 25 10.2718 24.7606 10.698 24.3343C11.1242 23.9081 11.3636 23.33 11.3636 22.7273V15.9091C11.3636 15.3063 11.1242 14.7282 10.698 14.302C10.2718 13.8758 9.69367 13.6364 9.09091 13.6364ZM22.7273 13.6364H15.9091C15.3063 13.6364 14.7282 13.8758 14.302 14.302C13.8758 14.7282 13.6364 15.3063 13.6364 15.9091V22.7273C13.6364 23.33 13.8758 23.9081 14.302 24.3343C14.7282 24.7606 15.3063 25 15.9091 25H22.7273C23.33 25 23.9081 24.7606 24.3343 24.3343C24.7606 23.9081 25 23.33 25 22.7273V15.9091C25 15.3063 24.7606 14.7282 24.3343 14.302C23.9081 13.8758 23.33 13.6364 22.7273 13.6364Z" fill="url(#paint0_linear_5_61)"/>
<defs>
<linearGradient id="paint0_linear_5_61" x1="-4.5" y1="13" x2="29.5" y2="11.5" gradientUnits="userSpaceOnUse">
<stop stop-color="#FE4347"/>
<stop offset="1" stop-color="#E5620A"/>
</linearGradient>
</defs>
</svg>
